<svg xmlns="http://www.w3.org/2000/svg" viewBox="320 30 900 930">
  <path fill="#ffcf00" d="M862.79 332.76c8.12 19.54 13.963 40.093 17.125 61.281 2.238 14.996 3.044 29.716 2.531 44.062 17.271 11.12 28.39 31.352 28.062 55.656-.167 12.382-3.28 24.376-8.625 35.125-2.27-20.763-11.1-38.663-24.28-51.656-7.649 35.631-23.865 67.903-46.845 94.844 10.923-1.354 21.976-3.72 33.062-7.156 16.24-5.034 31.651-12.09 46-20.812-20.52 42.68-56.627 76.974-101.38 90.844-24.875 7.71-49.51 8.189-72.125 2.625-16.442 6.155-33.938 10.708-52.312 13.438 30.662 13.797 64.547 21.183 99.22 20.312 111.37-2.797 188.93-90.044 173.28-194.91-8.715-58.386-44.489-109.93-93.72-143.66zM736.32 637.57c37.76-14.136 69.943-36.783 94.438-65.5-86.379 10.707-164.93-41.888-192.12-129.84-7.128 25.714-8.83 53.158-3.969 80.25 10.78 60.086 51.206 102.68 101.66 115.09zM877.6 477.23a224.5 224.5 0 0 0 4.844-39.125c-10.99-7.076-24.462-10.453-39.094-8.844-20.95 2.305-39.822 14.34-52.531 31.438a92.6 92.6 0 0 1 22.094-5.25c25.535-2.809 48.425 5.75 64.688 21.781z" color="#000"/>
  <path fill="#ffcf00" d="M775.03 312.44c-109.56 0-198.36 83.189-198.36 185.83s88.8 185.86 198.36 185.86c21.855 0 42.88-3.324 62.543-9.44a233.7 233.7 0 0 1-38.184 3.147c-113.4 0-205.31-81.048-205.31-181.01 0-99.966 91.902-180.98 205.31-180.98 5.652 0 11.251.183 16.788.578-13.272-2.622-27.042-3.981-41.147-3.981z" color="#000"/>
  <path fill="#ffcf00" d="M941 468.12c-7.42-118.65-111.02-177.69-199.3-148.22-41.105 13.722-72.859 43.434-91.749 81.133 62.404-54.182 124.69-71.686 185.91-53.144 56.83 17.214 86.126 71.007 105.14 120.23z" color="#000"/>
  <path fill="#ffcf00" d="M778.23 430.98c-8.199-38.92-43.864-60.503-79.667-48.212-19.934 6.843-35.71 22.744-44.36 42.214 6.334-4.117 13.169-7.5 20.403-9.983 43.992-15.102 87.801 7.995 102.92 52.134 2.857-11.66 3.257-24.035.704-36.152zm98.31-135.02 90.048-75.3 86.565-81.105-129.03 165.56 57.096-57.41-66.549 89.455-9.532-10.3-9.532-10.3-9.532-10.3zm-315.2 102.6L444.58 384.7l-117.01-20.65 198.86 68.232-79.319-16.898 104.79 38.603 2.357-13.857 2.357-13.857 2.357-13.857zm428.53 139.01 104.07 55.773 108.18 50.344-202.93-58.281 75.003 31.737-108.45-28.531 6.034-12.761 6.035-12.761 6.034-12.761zM613.25 657.21l-52.094 104-58.485 101.96 130.25-162.16-42.35 68.142 71.098-84.56-12.104-6.845-12.104-6.844-12.104-6.845zm182.48 63.65L776.544 837.8l-12.696 119.08-10.526-211.64-5.792 81.534-8.112-112.26 14.078 1.588 14.078 1.589 14.078 1.588zm80.55-25.78 88.153 78.642 84.462 84.369-124.46-170.69 55.583 59.585-64.059-92.123-9.92 10.053-9.919 10.053-9.92 10.053zm-313.8-102.93-116 22.002-115.79 28.808 194.48-82.17-78.288 22.439 102.3-45.952 3.324 13.718 3.324 13.718 3.324 13.718zm427.93-139.57 103.93-56.84 108.1-51.429-203.08 60.198 74.974-32.478-108.56 29.547 6.162 12.75 6.163 12.75 6.162 12.75zM612.76 332.41l-55.17-103.27-61.55-101.04 135.35 159.72-44.416-67.445 73.777 83.205-11.998 7.207-11.998 7.208-11.998 7.207zm183.46-61.48-12.56-118.02-5.94-119.79-22.53 211.03-1.17-81.857-14.475 111.8 14.167-.79 14.167-.79 14.167-.79z" color="#000"/>
</svg>
